# xmcd CD database file
#
# Track frame offsets:
#	150
#	11661
#	21794
#	34145
#	45926
#	61861
#	73132
#	91445
#	104620
#	116223
#	128970
#	141306
#	151752
#	165200
#	176350
#	192249
#	203212
#	215313
#	235364
#	246921
#	260663
#	274435
#	291767
#	304237
#
# Disc length: 4235 seconds
#
# Revision: 2
# Processed by: cddbd v1.5.2PL0 Copyright (c) Steve Scherf et al.
# Submitted via: CDex 1.70beta2
#
DISCID=62108918
DTITLE=John Lee Hooker - Legend (The Best Of John Lee Hooker)
DYEAR=2005
DGENRE=Blues
TTITLE0=Boom Boom
TTITLE1=Dimples
TTITLE2=I'm In The Mood
TTITLE3=Boogie Chillen
TTITLE4=It Serves You Right To Suffer
TTITLE5=This Hip
TTITLE6=House Rent Boogie
TTITLE7=I'm So Excited
TTITLE8=I Love You Honey
TTITLE9=Hobo Blues
TTITLE10=Crawlin' Kingsnake
TTITLE11=Maudie
TTITLE12=Baby Lee
TTITLE13=Good Rockin' Mama
TTITLE14=Dirty Ground Hog Blues
TTITLE15=Bottle Up and Go
TTITLE16=Everybody Rockin'
TTITLE17=Nightmare
TTITLE18=Will The Circle Be Unbroken
TTITLE19=You're Gonna Miss Me When I'm Gone
TTITLE20=Time Is Marching
TTITLE21=blues Before Sunrise
TTITLE22=Trouble Blues
TTITLE23=Every Night
EXTD=YEAR: 2005
EXTT0=
EXTT1=
EXTT2=
EXTT3=
EXTT4=
EXTT5=
EXTT6=
EXTT7=
EXTT8=
EXTT9=
EXTT10=
EXTT11=
EXTT12=
EXTT13=
EXTT14=
EXTT15=
EXTT16=
EXTT17=
EXTT18=
EXTT19=
EXTT20=
EXTT21=
EXTT22=
EXTT23=
PLAYORDER=
